<svg xmlns="http://www.w3.org/2000/svg" width="580" height="134" fill="none"><path fill="#121211" d="M47.445 28.348c-9.698 0-17.605 3.73-23.722 11.339V29.84H0v103.992h23.723V94.145c6.117 7.609 14.024 11.339 23.722 11.339 9.4 0 17.307-3.581 23.425-10.892 6.117-7.31 9.25-16.56 9.25-27.75 0-11.19-3.133-20.292-9.25-27.603-6.118-7.31-14.025-10.891-23.425-10.891ZM28.348 79.672c-3.133-3.431-4.625-7.609-4.625-12.83 0-5.223 1.492-9.4 4.625-12.832 2.984-3.282 6.863-4.923 11.488-4.923 4.625 0 8.505 1.64 11.489 4.923 2.983 3.432 4.475 7.61 4.475 12.831 0 5.222-1.491 9.4-4.475 12.831-2.985 3.432-6.864 5.073-11.489 5.073-4.625 0-8.504-1.641-11.488-5.073Zm70.432 24.32h23.723V0H98.78v103.992Zm98.704-64.305c-6.118-7.61-14.025-11.34-23.723-11.34-9.4 0-17.307 3.582-23.424 10.892-6.117 7.311-9.251 16.412-9.251 27.602 0 11.19 3.134 20.44 9.251 27.751 6.117 7.311 14.024 10.892 23.424 10.892 9.698 0 17.605-3.73 23.723-11.34v9.848h23.871V29.84h-23.871v9.847Zm-27.453 39.985c-3.133-3.431-4.625-7.609-4.625-12.83 0-5.223 1.492-9.4 4.625-12.832 2.984-3.282 6.863-4.923 11.488-4.923 4.625 0 8.505 1.64 11.489 4.923 2.984 3.432 4.476 7.61 4.476 12.831 0 5.222-1.492 9.4-4.476 12.831-2.984 3.432-6.864 5.073-11.489 5.073-4.625 0-8.504-1.641-11.488-5.073Zm119.37-51.324c-9.4 0-16.711 3.73-21.933 11.339V29.84h-23.871v74.152h23.871V60.276c0-7.758 4.924-12.98 12.533-12.98 7.162 0 12.085 5.222 12.085 12.98v43.716h23.872V56.845c0-8.355-2.536-15.218-7.46-20.59-4.923-5.222-11.339-7.907-19.097-7.907Zm93.375 0c-9.25 0-16.412 3.879-21.485 11.488V0h-23.722v103.992h23.722V60.276c0-7.758 4.924-12.98 12.533-12.98 7.162 0 12.085 5.222 12.085 12.98v43.716h23.872V56.845c0-8.355-2.536-15.218-7.46-20.59-5.073-5.222-11.637-7.907-19.545-7.907Zm101.286 11.339c-6.117-7.61-14.024-11.34-23.722-11.34-9.4 0-17.307 3.582-23.425 10.892-6.117 7.311-9.25 16.412-9.25 27.602 0 11.19 3.133 20.44 9.25 27.751 6.118 7.311 14.025 10.892 23.425 10.892 9.698 0 17.605-3.73 23.722-11.34v9.848h23.872V29.84h-23.872v9.847ZM456.61 79.672c-3.134-3.431-4.626-7.609-4.626-12.83 0-5.223 1.492-9.4 4.626-12.832 2.984-3.282 6.863-4.923 11.488-4.923 4.625 0 8.504 1.64 11.488 4.923 2.984 3.432 4.476 7.61 4.476 12.831 0 5.222-1.492 9.4-4.476 12.831-2.984 3.432-6.863 5.073-11.488 5.073-4.625 0-8.504-1.641-11.488-5.073ZM562.551 29.84V10.295H538.68V29.84h-13.727v19.694h13.727v54.458h23.871V49.534h16.412V29.84h-16.412Z"/></svg>